<svg width="50" height="47" viewBox="0 0 50 47" fill="none" xmlns="http://www.w3.org/2000/svg">
<g filter="url(#filter0_d_12_392)">
<path d="M39.0928 14.5H40.0354L39.5068 13.7196C37.4804 10.7281 34.2624 8.42276 30.4116 7.29031L29.1432 6.91727L29.8474 8.03632C31.0447 9.93881 31.9636 11.997 32.6031 14.1428L32.7096 14.5H33.0823H39.0928ZM25.383 6.7564L24.9935 6.27281L24.6041 6.7564C22.8797 8.89772 21.5263 11.2749 20.6301 13.8348L20.3972 14.5H21.102H28.8851H29.5899L29.357 13.8348C28.4608 11.2749 27.1073 8.89772 25.383 6.7564ZM8.74349 24.6397L8.84835 25H9.22357H16.1102H16.6857L16.6053 24.4301C16.4438 23.2855 16.325 22.1565 16.325 21C16.325 19.8435 16.4438 18.7145 16.6053 17.5699L16.6857 17H16.1102H9.22357H8.84835L8.74349 17.3603C8.40706 18.5161 8.19383 19.7362 8.19383 21C8.19383 22.2638 8.40706 23.4839 8.74349 24.6397ZM17.384 27.8572L17.2775 27.5H16.9048H10.8943V28L10.4795 28.2793C12.5068 31.2902 15.7259 33.5776 19.5754 34.7097L20.8439 35.0827L20.1397 33.9637C18.9424 32.0612 18.0235 30.003 17.384 27.8572ZM10.4795 13.7207L9.95486 14.5H10.8943H16.9048V14L17.384 14.1428C18.0235 11.997 18.9424 9.93881 20.1397 8.03632L20.8439 6.91727L19.5754 7.29031C15.7259 8.4224 12.5068 10.7098 10.4795 13.7207ZM24.6041 35.2436L24.9935 35.7272L25.383 35.2436C27.1073 33.1023 28.4608 30.7251 29.357 28.1652L29.5899 27.5H28.8851H21.102H20.3972L20.6301 28.1652C21.5263 30.7251 22.8797 33.1023 24.6041 35.2436ZM29.7612 25H30.1881L30.255 24.5784C30.4399 23.4137 30.5872 22.2287 30.5872 21C30.5872 19.7716 30.4401 18.5693 30.2548 17.4204L30.1871 17H29.7612H20.2259H19.8L19.7323 17.4204C19.547 18.5693 19.3999 19.7716 19.3999 21C19.3999 22.2287 19.5471 23.4137 19.7321 24.5784L19.799 25H20.2259H29.7612ZM33.0823 27.5H32.7096L32.6031 27.8572C31.9636 30.003 31.0447 32.0612 29.8474 33.9637L30.2706 34.23L30.4116 34.7097C34.2624 33.5772 37.4804 31.2719 39.5068 28.2804L40.0354 27.5H39.0928H33.0823ZM33.3818 24.4301L33.3014 25H33.8769H40.7635H41.1387L41.2436 24.6397C41.58 23.4839 41.7933 22.2638 41.7933 21C41.7933 19.7362 41.58 18.5161 41.2436 17.3603L41.1387 17H40.7635H33.8769H33.3014L33.3818 17.5699C33.5433 18.7145 33.6621 19.8435 33.6621 21C33.6621 22.1565 33.5433 23.2855 33.3818 24.4301ZM5.1189 21C5.1189 11.6842 13.9291 4 24.9732 4C36.0386 4 44.8682 11.6851 44.8682 21C44.8682 30.3149 36.0386 38 24.9732 38C13.9291 38 5.1189 30.3158 5.1189 21Z" stroke="#E4E4E4"/>
</g>
<defs>
<filter id="filter0_d_12_392" x="-3.45605" y="0" width="56.8992" height="50" filterUnits="userSpaceOnUse" color-interpolation-filters="sRGB">
<feFlood flood-opacity="0" result="BackgroundImageFix"/>
<feColorMatrix in="SourceAlpha" type="matrix" values="0 0 0 0 0 0 0 0 0 0 0 0 0 0 0 0 0 0 127 0" result="hardAlpha"/>
<feOffset dy="4"/>
<feGaussianBlur stdDeviation="2"/>
<feComposite in2="hardAlpha" operator="out"/>
<feColorMatrix type="matrix" values="0 0 0 0 0 0 0 0 0 0 0 0 0 0 0 0 0 0 0.25 0"/>
<feBlend mode="normal" in2="BackgroundImageFix" result="effect1_dropShadow_12_392"/>
<feBlend mode="normal" in="SourceGraphic" in2="effect1_dropShadow_12_392" result="shape"/>
</filter>
</defs>
</svg>
