<svg width="49" height="41" viewBox="0 0 49 41" fill="none" xmlns="http://www.w3.org/2000/svg">
<path d="M41.4806 3.62792C38.3575 2.07795 35.0084 0.935975 31.5068 0.281917C31.443 0.269298 31.3793 0.300844 31.3465 0.363937C30.9158 1.19255 30.4387 2.27354 30.1046 3.12318C26.3383 2.51329 22.5914 2.51329 18.9024 3.12318C18.5683 2.25461 18.0738 1.19255 17.6412 0.363937C17.6083 0.302948 17.5446 0.271401 17.4809 0.281917C13.9812 0.933872 10.6321 2.07585 7.50708 3.62792C7.48004 3.64054 7.45686 3.66157 7.44141 3.68891C1.08901 13.9541 -0.65119 23.9668 0.202493 33.8555C0.206356 33.9039 0.231464 33.9502 0.266229 33.9796C4.45739 37.3088 8.51721 39.3298 12.5017 40.6695C12.5654 40.6905 12.633 40.6653 12.6736 40.6085C13.6161 39.2163 14.4563 37.7483 15.1767 36.2047C15.2192 36.1142 15.1786 36.007 15.0917 35.9712C13.7591 35.4244 12.4901 34.7577 11.2695 34.0006C11.1729 33.9396 11.1652 33.7903 11.254 33.7188C11.5109 33.5106 11.7678 33.294 12.0131 33.0753C12.0575 33.0353 12.1193 33.0269 12.1714 33.0521C20.1906 37.0122 28.8723 37.0122 36.7969 33.0521C36.849 33.0248 36.9108 33.0332 36.9572 33.0732C37.2025 33.2919 37.4594 33.5106 37.7182 33.7188C37.807 33.7903 37.8012 33.9396 37.7047 34.0006C36.484 34.7725 35.2151 35.4244 33.8805 35.9691C33.7936 36.0049 33.7549 36.1142 33.7974 36.2047C34.5333 37.7462 35.3734 39.2142 36.2986 40.6064C36.3372 40.6653 36.4067 40.6905 36.4705 40.6695C40.4743 39.3298 44.5341 37.3088 48.7253 33.9796C48.762 33.9502 48.7851 33.906 48.789 33.8576C49.8107 22.4253 47.0778 12.4945 41.5443 3.69101C41.5308 3.66157 41.5076 3.64054 41.4806 3.62792ZM16.3742 27.8344C13.9599 27.8344 11.9706 25.4369 11.9706 22.4926C11.9706 19.5483 13.9213 17.1507 16.3742 17.1507C18.8464 17.1507 20.8164 19.5693 20.7778 22.4926C20.7778 25.4369 18.8271 27.8344 16.3742 27.8344ZM32.656 27.8344C30.2417 27.8344 28.2523 25.4369 28.2523 22.4926C28.2523 19.5483 30.2031 17.1507 32.656 17.1507C35.1282 17.1507 37.0982 19.5693 37.0596 22.4926C37.0596 25.4369 35.1282 27.8344 32.656 27.8344Z" fill="#5865F2"/>
</svg>
